<?xml version="1.0" encoding="UTF-8" standalone="no"?>
<svg
   xmlns:dc="http://purl.org/dc/elements/1.1/"
   xmlns:cc="http://creativecommons.org/ns#"
   xmlns:rdf="http://www.w3.org/1999/02/22-rdf-syntax-ns#"
   xmlns:svg="http://www.w3.org/2000/svg"
   xmlns="http://www.w3.org/2000/svg"
   xmlns:sodipodi="http://sodipodi.sourceforge.net/DTD/sodipodi-0.dtd"
   xmlns:inkscape="http://www.inkscape.org/namespaces/inkscape"
   width="8.8000002"
   height="8.8000002"
   viewBox="0 0 8.8000002 8.8000002"
   version="1.1"
   id="svg4"
   sodipodi:docname="arrow-circle-top.svg"
   inkscape:version="0.92.5 (2060ec1f9f, 2020-04-08)">
  <metadata
     id="metadata10">
    <rdf:RDF>
      <cc:Work
         rdf:about="">
        <dc:format>image/svg+xml</dc:format>
        <dc:type
           rdf:resource="http://purl.org/dc/dcmitype/StillImage" />
        <dc:title></dc:title>
      </cc:Work>
    </rdf:RDF>
  </metadata>
  <defs
     id="defs8" />
  <sodipodi:namedview
     pagecolor="#ffffff"
     bordercolor="#666666"
     borderopacity="1"
     objecttolerance="10"
     gridtolerance="10"
     guidetolerance="10"
     inkscape:pageopacity="0"
     inkscape:pageshadow="2"
     inkscape:window-width="1280"
     inkscape:window-height="751"
     id="namedview6"
     showgrid="false"
     showguides="true"
     inkscape:zoom="22.627417"
     inkscape:cx="0.59325064"
     inkscape:cy="4.2644068"
     inkscape:window-x="0"
     inkscape:window-y="25"
     inkscape:window-maximized="1"
     inkscape:current-layer="svg4" />
  <g
     id="g829">
    <path
       id="path4551"
       d="m 4.4,0.4 c -2.21,0 -4,1.79 -4,4 0,2.21 1.79,4 4,4 2.21,0 4,-1.79 4,-4 0,-2.21 -1.79,-4 -4,-4 z"
       style="fill:#ca0000;fill-opacity:1"
       inkscape:connector-curvature="0" />
    <path
       id="path4547"
       d="m 4.4,1.4 3,3 h -2 v 3 h -2 v -3 h -2 z"
       style="fill:#ffffff;fill-opacity:1"
       inkscape:connector-curvature="0" />
    <path
       inkscape:connector-curvature="0"
       id="path822"
       d="M 4.4,0 C 1.969,0 0,1.969 0,4.4 0,6.831 1.969,8.8 4.4,8.8 6.831,8.8 8.8,6.831 8.8,4.4 8.8,1.969 6.831,0 4.4,0 Z"
       style="fill:#ffffff;fill-opacity:1;stroke-width:1.10000002" />
    <path
       inkscape:connector-curvature="0"
       id="path2"
       d="M 4.4,1.1 7.7,4.4 H 5.5 V 7.7 H 3.3 V 4.4 H 1.1 Z"
       style="fill:#ffffff;fill-opacity:1;stroke-width:1.10000002" />
    <path
       inkscape:connector-curvature="0"
       d="m 4.4,0.4 c -2.21,0 -4,1.79 -4,4 0,2.21 1.79,4 4,4 2.21,0 4,-1.79 4,-4 0,-2.21 -1.79,-4 -4,-4 z m 0,1 3,3 h -2 v 3 h -2 v -3 h -2 z"
       id="path818"
       style="fill:#000000;fill-opacity:1" />
  </g>
</svg>
